<?xml version="1.0" ?><svg enable-background="new 0 0 64 64" id="Filled_Outline_00000087397764462717629230000011401247782193659528_" version="1.1" viewBox="0 0 64 64" xml:space="preserve" xmlns="http://www.w3.org/2000/svg" xmlns:xlink="http://www.w3.org/1999/xlink"><g><g><path d="M41,17h-0.1c-2.705-1.27-5.714-2-8.9-2s-6.195,0.73-8.9,2H23C10.85,17,1,26.85,1,39v0    c0,12.15,9.85,22,22,22h0.1c2.705,1.27,5.714,2,8.9,2s6.195-0.73,8.9-2H41c12.15,0,22-9.85,22-22v0C63,26.85,53.15,17,41,17z" fill="#FF6D1F"/><path d="M21,4L21,4c0,1.657,1.343,3,3,3h0c2.761,0,5,2.239,5,5v3h6v-3c0-6.075-4.925-11-11-11h0    C22.343,1,21,2.343,21,4z" fill="#A69D24"/><path d="M18,29.828L18,29.828C18,28.266,19.266,27,20.828,27h0c0.75,0,1.47,0.298,2,0.828L23,28l0.172-0.172    c0.53-0.53,1.25-0.828,2-0.828h0C26.734,27,28,28.266,28,29.828v0c0,0.75-0.298,1.47-0.828,2L23,36l-4.172-4.172    C18.298,31.298,18,30.579,18,29.828z M36.828,31.828L41,36l4.172-4.172c0.53-0.53,0.828-1.25,0.828-2v0    C46,28.266,44.734,27,43.172,27h0c-0.75,0-1.47,0.298-2,0.828L41,28l-0.172-0.172c-0.53-0.53-1.25-0.828-2-0.828h0    C37.266,27,36,28.266,36,29.828v0C36,30.579,36.298,31.298,36.828,31.828z M17,44c0,8.284,6.716,15,15,15h0    c8.284,0,15-6.716,15-15v-1h-6v4h-6l0-4h-6v4h-6v-4h-6V44z" fill="#732002"/></g><g><path d="M18.121,32.536l4.172,4.171C22.488,36.902,22.744,37,23,37s0.512-0.098,0.707-0.293l4.172-4.172    C28.602,31.812,29,30.851,29,29.829C29,27.717,27.282,26,25.172,26c-0.788,0-1.539,0.236-2.172,0.674    C22.366,26.236,21.615,26,20.828,26C18.718,26,17,27.717,17,29.829C17,30.851,17.398,31.812,18.121,32.536    C18.121,32.536,18.121,32.536,18.121,32.536z M20.828,28c0.481,0,0.952,0.195,1.294,0.537l0.172,0.171    c0.391,0.39,1.021,0.39,1.412,0l0.173-0.173C24.22,28.195,24.69,28,25.172,28C26.18,28,27,28.82,27,29.829    c0,0.488-0.19,0.948-0.535,1.293L23,34.586l-3.465-3.464C19.19,30.776,19,30.317,19,29.829C19,28.82,19.82,28,20.828,28z" fill="#260A04"/><path d="M36.121,32.536l4.172,4.171C40.488,36.902,40.744,37,41,37s0.512-0.098,0.707-0.293l4.172-4.172    C46.602,31.812,47,30.851,47,29.829C47,27.717,45.282,26,43.172,26c-0.788,0-1.539,0.236-2.172,0.674    C40.366,26.236,39.615,26,38.828,26C36.718,26,35,27.717,35,29.829C35,30.851,35.398,31.812,36.121,32.536    C36.121,32.536,36.121,32.536,36.121,32.536z M38.828,28c0.481,0,0.952,0.195,1.294,0.537l0.172,0.171    c0.391,0.39,1.021,0.39,1.412,0l0.173-0.173C42.22,28.195,42.69,28,43.172,28C44.18,28,45,28.82,45,29.829    c0,0.488-0.19,0.948-0.535,1.293L41,34.586l-3.465-3.464C37.19,30.776,37,30.317,37,29.829C37,28.82,37.82,28,38.828,28z" fill="#260A04"/><path d="M47,42h-6c-0.553,0-1,0.448-1,1v3h-4v-3c0-0.552-0.447-1-1-1h-6c-0.553,0-1,0.448-1,1v3h-4v-3    c0-0.552-0.447-1-1-1h-6c-0.553,0-1,0.448-1,1v1c0,8.822,7.178,16,16,16s16-7.178,16-16v-1C48,42.448,47.553,42,47,42z M32,58    c-7.72,0-14-6.28-14-14h4v3c0,0.552,0.447,1,1,1h6c0.553,0,1-0.448,1-1v-3h4v3c0,0.552,0.447,1,1,1h6c0.553,0,1-0.448,1-1v-3h4    C46,51.72,39.72,58,32,58z" fill="#260A04"/><path d="M64,39c0-12.63-10.233-22.911-22.843-22.996c-1.623-0.746-3.351-1.3-5.157-1.633V12    c0-6.617-5.383-12-12-12c-2.206,0-4,1.794-4,4s1.794,4,4,4s4,1.794,4,4v2.371c-1.805,0.333-3.534,0.887-5.157,1.633    C10.233,16.089,0,26.37,0,39s10.233,22.911,22.843,22.996C25.633,63.279,28.733,64,32,64s6.367-0.721,9.157-2.004    C53.767,61.911,64,51.63,64,39z M24,6c-1.103,0-2-0.897-2-2s0.897-2,2-2c5.514,0,10,4.486,10,10v2.095    C33.341,14.035,32.675,14,32,14s-1.341,0.035-2,0.095V12C30,8.691,27.309,6,24,6z M45.218,59.574C50.547,55.555,54,49.174,54,42    h-2c0,11.028-8.972,20-20,20s-20-8.972-20-20h-2c0,7.174,3.453,13.555,8.782,17.574C9.218,57.616,2,49.135,2,39    s7.218-18.616,16.782-20.574C13.453,22.445,10,28.826,10,36h2c0-11.028,8.972-20,20-20s20,8.972,20,20h2    c0-7.174-3.453-13.555-8.782-17.574C54.782,20.384,62,28.865,62,39S54.782,57.616,45.218,59.574z" fill="#260A04"/></g></g></svg>